<?xml version="1.0" standalone="no"?>
<!DOCTYPE svg PUBLIC "-//W3C//DTD SVG 20010904//EN"
 "http://www.w3.org/TR/2001/REC-SVG-20010904/DTD/svg10.dtd">
<svg version="1.0" xmlns="http://www.w3.org/2000/svg"
 width="1784.000000pt" height="353.000000pt" viewBox="0 0 1784.000000 353.000000"
 preserveAspectRatio="xMidYMid meet">

<g transform="translate(0.000000,353.000000) scale(0.100000,-0.100000)"
fill="#000000" stroke="none">
<path d="M0 1785 l0 -1745 545 0 545 0 0 650 0 650 1160 0 1160 0 0 -650 0
-650 545 0 545 0 0 1745 0 1745 -542 -2 -543 -3 -3 -627 -2 -628 -1160 0
-1160 0 0 630 0 630 -545 0 -545 0 0 -1745z"/>
<path d="M4707 3523 c-12 -11 -8 -2495 4 -2626 13 -151 38 -251 91 -357 35
-71 59 -102 148 -190 221 -221 365 -284 740 -321 168 -16 1870 -24 2203 -10
541 23 673 63 920 278 175 153 257 308 286 548 7 61 11 503 11 1388 l0 1297
-535 0 -535 0 0 -1187 0 -1187 -21 -44 c-25 -51 -79 -93 -152 -119 -49 -17
-110 -18 -967 -18 -856 0 -918 1 -960 18 -68 27 -114 63 -141 110 l-24 42 -3
1193 -2 1192 -528 0 c-291 0 -532 -3 -535 -7z"/>
<path d="M10062 3519 c-416 -40 -644 -269 -722 -724 -58 -338 -25 -713 80
-934 89 -185 286 -324 531 -375 166 -34 557 -54 1859 -96 477 -15 564 -30 658
-115 63 -56 85 -108 85 -201 1 -163 -97 -249 -311 -274 -54 -6 -609 -10 -1459
-10 l-1373 0 0 -375 0 -375 1698 3 c1681 3 1698 3 1792 24 414 92 604 287 687
708 26 130 26 532 0 659 -46 225 -114 372 -222 481 -138 137 -308 201 -600
224 -208 17 -1024 49 -1780 71 -350 10 -432 20 -507 62 -63 35 -98 85 -110
159 -29 173 63 296 247 328 42 8 512 11 1463 11 l1402 0 0 380 0 380 -1667 -1
c-918 -1 -1705 -5 -1751 -10z"/>
<path d="M13737 3523 c-4 -3 -7 -186 -7 -405 l0 -398 770 0 770 0 0 -1340 0
-1340 540 0 540 0 0 1340 0 1340 740 0 740 0 0 405 0 405 -2043 0 c-1124 0
-2047 -3 -2050 -7z"/>
</g>
</svg>
